<svg xmlns="http://www.w3.org/2000/svg" xmlns:xlink="http://www.w3.org/1999/xlink" width="1024" height="1024" viewBox="0 0 1024 1024">
<defs>
<radialGradient id="wax" cx="42%" cy="36%" r="72%">
<stop offset="0%" stop-color="#bb422e"/>
<stop offset="55%" stop-color="#8c2f22"/>
<stop offset="100%" stop-color="#591c12"/>
</radialGradient>
<radialGradient id="sheen" cx="39%" cy="31%" r="46%">
<stop offset="0%" stop-color="#ffffff" stop-opacity="0.17"/>
<stop offset="100%" stop-color="#ffffff" stop-opacity="0"/>
</radialGradient>
<path id="arcTop" d="M -266 0 A 266 266 0 0 1 266 0" fill="none"/>
</defs>
<g transform="translate(512,512)">
<circle cx="384.00" cy="0.00" r="30" fill="#8c2f22"/><circle cx="377.46" cy="70.56" r="30" fill="#8c2f22"/><circle cx="358.07" cy="138.72" r="30" fill="#8c2f22"/><circle cx="326.48" cy="202.15" r="30" fill="#8c2f22"/><circle cx="283.78" cy="258.70" r="30" fill="#8c2f22"/><circle cx="231.41" cy="306.44" r="30" fill="#8c2f22"/><circle cx="171.16" cy="343.74" r="30" fill="#8c2f22"/><circle cx="105.09" cy="369.34" r="30" fill="#8c2f22"/><circle cx="35.43" cy="382.36" r="30" fill="#8c2f22"/><circle cx="-35.43" cy="382.36" r="30" fill="#8c2f22"/><circle cx="-105.09" cy="369.34" r="30" fill="#8c2f22"/><circle cx="-171.16" cy="343.74" r="30" fill="#8c2f22"/><circle cx="-231.41" cy="306.44" r="30" fill="#8c2f22"/><circle cx="-283.78" cy="258.70" r="30" fill="#8c2f22"/><circle cx="-326.48" cy="202.15" r="30" fill="#8c2f22"/><circle cx="-358.07" cy="138.72" r="30" fill="#8c2f22"/><circle cx="-377.46" cy="70.56" r="30" fill="#8c2f22"/><circle cx="-384.00" cy="0.00" r="30" fill="#8c2f22"/><circle cx="-377.46" cy="-70.56" r="30" fill="#8c2f22"/><circle cx="-358.07" cy="-138.72" r="30" fill="#8c2f22"/><circle cx="-326.48" cy="-202.15" r="30" fill="#8c2f22"/><circle cx="-283.78" cy="-258.70" r="30" fill="#8c2f22"/><circle cx="-231.41" cy="-306.44" r="30" fill="#8c2f22"/><circle cx="-171.16" cy="-343.74" r="30" fill="#8c2f22"/><circle cx="-105.09" cy="-369.34" r="30" fill="#8c2f22"/><circle cx="-35.43" cy="-382.36" r="30" fill="#8c2f22"/><circle cx="35.43" cy="-382.36" r="30" fill="#8c2f22"/><circle cx="105.09" cy="-369.34" r="30" fill="#8c2f22"/><circle cx="171.16" cy="-343.74" r="30" fill="#8c2f22"/><circle cx="231.41" cy="-306.44" r="30" fill="#8c2f22"/><circle cx="283.78" cy="-258.70" r="30" fill="#8c2f22"/><circle cx="326.48" cy="-202.15" r="30" fill="#8c2f22"/><circle cx="358.07" cy="-138.72" r="30" fill="#8c2f22"/><circle cx="377.46" cy="-70.56" r="30" fill="#8c2f22"/>
<circle r="392" fill="url(#wax)"/>
<circle r="392" fill="url(#sheen)"/>
<circle r="338" fill="none" stroke="#f2e7d0" stroke-width="7" opacity="0.9"/>
<circle r="316" fill="none" stroke="#f2e7d0" stroke-width="2.5" opacity="0.6"/>
<line x1="0" y1="-332" x2="0" y2="-360" stroke="#f2e7d0" stroke-width="6" opacity="0.75" transform="rotate(0)"/><line x1="0" y1="-332" x2="0" y2="-360" stroke="#f2e7d0" stroke-width="6" opacity="0.75" transform="rotate(90)"/><line x1="0" y1="-332" x2="0" y2="-360" stroke="#f2e7d0" stroke-width="6" opacity="0.75" transform="rotate(180)"/><line x1="0" y1="-332" x2="0" y2="-360" stroke="#f2e7d0" stroke-width="6" opacity="0.75" transform="rotate(270)"/>
<text font-family="'Courier New', ui-monospace, monospace" font-size="31" letter-spacing="6" fill="#f2e7d0" opacity="0.92">
<textPath xlink:href="#arcTop" href="#arcTop" startOffset="50%" text-anchor="middle">SEALEDBENCH · NOTARIZED ON SUI</textPath>
</text>
<text x="0" y="86" text-anchor="middle" font-family="Georgia, 'Times New Roman', serif" font-style="italic" font-weight="700" font-size="290" fill="#f6edd8">SB</text>
<text x="0" y="184" text-anchor="middle" font-family="'Courier New', ui-monospace, monospace" font-size="33" letter-spacing="9" fill="#f2e7d0" opacity="0.82">SEALED</text>
</g>
</svg>